<svg width="14" height="24" viewBox="0 0 14 24" fill="none" xmlns="http://www.w3.org/2000/svg">
<path d="M4.31738 4.86719C4.50983 4.67489 4.71311 4.64696 4.9541 4.78027C5.13751 4.88187 5.33437 4.89271 5.53418 4.87402C5.87435 4.84161 6.20861 4.84509 6.53906 4.95605C6.8561 5.06267 7.07762 5.2929 7.27441 5.54785C7.56283 5.92238 7.83798 6.30789 8.11426 6.69238C8.20234 6.81519 8.28436 6.82476 8.42285 6.76367C8.78486 6.60285 9.12258 6.39338 9.47852 6.2207C9.74032 6.09415 9.94695 5.85884 10.2373 5.77344C10.5804 5.67305 10.9093 5.49526 11.2852 5.57129C11.4684 5.60871 11.626 5.70262 11.7783 5.80664C11.8494 5.85527 11.9211 5.90411 12.0049 5.90723C12.4428 5.92534 12.8087 6.15026 13.1865 6.33789C13.3442 6.41643 13.4672 6.54422 13.5752 6.67871C13.7908 6.94613 13.7429 7.26039 13.4453 7.45801C13.1902 7.62695 12.9088 7.75499 12.6494 7.91895C12.1769 8.21811 11.6953 8.49657 11.1748 8.69727C10.8778 8.81192 10.5704 8.88997 10.2559 8.93359C10.1302 8.95104 10.0149 9.00517 9.88379 9.0127C9.55649 9.03201 9.24294 8.98011 8.9375 8.87109C8.80405 8.82316 8.69942 8.84168 8.6084 8.94727C8.49845 9.07506 8.35681 9.16562 8.20312 9.20801C7.90253 9.29158 7.68455 9.50231 7.48535 9.71484C7.2128 10.0053 7.16443 10.3964 7.30957 10.7529C7.64486 11.5764 7.77129 12.4026 7.58301 13.2891C7.46153 13.8601 7.55599 14.4372 7.74609 14.9883C8.08019 15.9583 8.34837 16.9448 8.47168 17.9678C8.52087 18.3761 8.53786 18.7867 8.4668 19.1943C8.4463 19.3137 8.47777 19.3635 8.59668 19.3691C8.8687 19.3817 9.11461 19.4898 9.34961 19.6182C9.73156 19.827 9.7508 20.3377 9.39062 20.5889C8.87202 20.9509 8.34775 21.3006 7.72168 21.4434C7.49335 21.4957 7.26012 21.5091 7.03906 21.625C6.84833 21.7254 6.61566 21.6922 6.39941 21.6504C6.23209 21.6182 6.14142 21.6996 6.15234 21.874C6.15781 21.9581 6.16621 22.0532 6.20801 22.1211C6.41569 22.4558 6.18862 22.929 5.75879 23.0215C5.50375 23.0763 5.2477 23.1329 4.99023 23.1709C4.72918 23.2095 4.46671 23.2507 4.2002 23.2109C3.82127 23.1548 3.47768 23.2746 3.14551 23.4453H2.37891V23.4434C2.07276 23.3517 1.79668 23.1966 1.52637 23.0264C1.40922 22.9522 1.39923 22.869 1.45996 22.7568C1.7649 22.1889 2.35476 21.6835 3.07031 21.8213C3.15646 21.838 3.24738 21.8257 3.33594 21.8301C3.45366 21.8363 3.46424 21.7892 3.42188 21.6865C3.19777 21.1405 2.98033 20.5911 2.82422 20.0195C2.75011 19.7496 2.68685 19.478 2.70508 19.1943C2.71237 19.0834 2.72357 18.9734 2.82617 18.9092C2.90438 18.8599 2.86732 18.8044 2.84668 18.7471C2.65543 18.2049 2.50353 17.6517 2.40332 17.084C2.30734 16.5373 2.27129 15.9868 2.33203 15.4326C2.35744 15.2034 2.27672 14.9909 2.15723 14.9502C2.04303 14.9115 1.76484 15.0593 1.67676 15.2363C1.59171 15.4083 1.45301 15.4876 1.28906 15.5312C0.860389 15.6445 0.453093 15.5787 0.0693359 15.3525C-0.0160409 15.3021 -0.0130756 15.2411 0.0263672 15.167C0.092543 15.0424 0.155789 14.9139 0.230469 14.7949C0.276442 14.7209 0.285291 14.6715 0.194336 14.6416C0.0430827 14.5917 0.0542285 14.4934 0.111328 14.375C0.297808 13.9879 0.553731 13.6541 0.857422 13.3574C1.2704 12.9536 1.73993 12.6361 2.25977 12.3955C2.37509 12.3419 2.48715 12.2767 2.59277 12.2051C2.70433 12.1291 2.79253 12.0318 2.83984 11.8936C3.09373 11.1487 3.41412 10.4359 3.86719 9.79395C3.99168 9.61819 4.15313 9.47336 4.33105 9.35742C4.42759 9.29449 4.42372 9.24576 4.38672 9.15234C4.1857 8.6394 3.96853 8.12569 3.8877 7.5791C3.80448 7.01679 3.58605 6.47758 3.61035 5.89844C3.61947 5.67531 3.64728 5.45877 3.75781 5.25684C3.83244 5.12127 3.93483 5.03734 4.07422 5.00488C4.17141 4.98244 4.24813 4.93701 4.31738 4.86719ZM5.2959 0C6.15295 0.000127311 6.84766 0.713311 6.84766 1.59277C6.84754 2.47213 6.15288 3.18542 5.2959 3.18555C4.43882 3.18555 3.74426 2.47221 3.74414 1.59277C3.74414 0.713232 4.43874 0 5.2959 0Z" fill="#F06485"/>
</svg>
